# xmcd
#
# Track frame offsets:
#	150
#	17175
#	33732
#
# Disc length: 703 seconds
#
# Revision: 0
# Processed by: cddbd v1.4PL0 Copyright (c) Steve Scherf et al.
# Submitted via: audiograbber 1.80
#
DISCID=2002bd03
DTITLE=Jimmy Nail - Running Man
DYEAR=1900
DGENRE=
TTITLE0=Running Man
TTITLE1=Fear No Evil
TTITLE2=Crocodile Shoes (live)
EXTD=
EXTT0=
EXTT1=
EXTT2=
PLAYORDER=
